# xmcd CD database file
# Copyright (C) 1997 Ti Kan
# 
# Track frame offsets:
#     183
#     13035
#     27535
#     43743
#     57905
#     76665
#     93345
#     108338
#     124360
#     142590
# 
# Disc length: 2080 seconds
# 
# Revision: 1
# Processed by: cddbd v1.4b41PL1 Copyright (c) Steve Scherf et al.
# Submitted via: DiscPlay 4.0.4
# 
DISCID=79081e0a
DTITLE=Mcbride and The Ride - Burnin' Up The Road
DYEAR=1900
DGENRE=
TTITLE0=Ain't No Big Deal
TTITLE1=Felicia
TTITLE2=Same Old Star
TTITLE3=Every Step Of The Way
TTITLE4=Chains Of Memory
TTITLE5=Stone Country
TTITLE6=Can I Count On You
TTITLE7=Burnin' Up The Road
TTITLE8=Nobody's Fool
TTITLE9=Turn To Blue
EXTD=
EXTT0=
EXTT1=
EXTT2=
EXTT3=
EXTT4=
EXTT5=
EXTT6=
EXTT7=
EXTT8=
EXTT9=
PLAYORDER=
